<svg xmlns="http://www.w3.org/2000/svg" viewBox="0 0 900 620" role="img" aria-labelledby="t"><title id="t">Emergency stop button mount illustration</title><defs><linearGradient id="bg" x1="0" y1="0" x2="900" y2="620"><stop stop-color="#f3e2ba"/><stop offset="1" stop-color="#92784d"/></linearGradient><linearGradient id="red" x1="300" y1="105" x2="590" y2="425"><stop stop-color="#ff5c4e"/><stop offset="1" stop-color="#9c0e0e"/></linearGradient></defs><rect width="900" height="620" fill="url(#bg)"/><ellipse cx="455" cy="526" rx="272" ry="44" fill="#1e1710" opacity=".22"/><g transform="translate(145 45)"><path d="M139 251 459 224l106 84-17 167-337 29-108-89 36-164Z" fill="#262b31" stroke="#68727d" stroke-width="10"/><path d="M180 280 431 259l77 61-12 111-258 22-79-64 21-109Z" fill="#e3b521" stroke="#ffe17a" stroke-width="6"/><circle cx="333" cy="261" r="135" fill="#353b43" stroke="#11151b" stroke-width="14"/><circle cx="333" cy="226" r="112" fill="url(#red)" stroke="#7b1111" stroke-width="9"/><ellipse cx="310" cy="189" rx="50" ry="24" fill="#ffaaa2" opacity=".5"/><path d="M246 91h174l36 38-20 49H229l-19-49 36-38Z" fill="#b31212"/><path d="M245 112h177" stroke="#fa5e53" stroke-width="8" stroke-linecap="round"/></g></svg>
